<?xml version="1.0" encoding="utf-8"?>
<!-- Generator: Adobe Illustrator 16.0.0, SVG Export Plug-In . SVG Version: 6.00 Build 0)  -->
<!DOCTYPE svg PUBLIC "-//W3C//DTD SVG 1.1//EN" "http://www.w3.org/Graphics/SVG/1.1/DTD/svg11.dtd">
<svg version="1.1" id="图层_1" xmlns="http://www.w3.org/2000/svg" xmlns:xlink="http://www.w3.org/1999/xlink" x="0px" y="0px"
	 width="300px" height="120px" viewBox="0 0 300 120" enable-background="new 0 0 300 120" xml:space="preserve">
<path opacity="0.5" fill="#636363" enable-background="new    " d="M149.55,46.958c9.893,0,17.989,8.095,17.989,17.989
	c0,9.894-8.097,17.988-17.989,17.988c-9.895,0-17.989-8.096-17.989-17.988C131.562,55.053,139.656,46.958,149.55,46.958
	 M149.55,93.729c-16.19,0-29.681-12.592-29.681-28.78c0-16.19,13.49-28.782,29.681-28.782s29.681,12.592,29.681,28.782
	C179.231,81.137,166.64,93.729,149.55,93.729L149.55,93.729z M132.461,8.282l-10.793,11.693H102.78
	c-6.296,0-11.692,5.396-11.692,11.692v68.356c0,6.297,5.396,11.693,11.692,11.693h94.44c6.296,0,11.693-5.396,11.693-11.693V31.667
	c0-6.296-5.397-11.692-11.693-11.692h-18.888L167.539,8.282H132.461z"/>
</svg>
