<?xml version="1.0" encoding="utf-8"?>
<!-- Generator: Adobe Illustrator 16.0.0, SVG Export Plug-In . SVG Version: 6.00 Build 0)  -->
<!DOCTYPE svg PUBLIC "-//W3C//DTD SVG 1.1//EN" "http://www.w3.org/Graphics/SVG/1.1/DTD/svg11.dtd">
<svg version="1.1" id="图层_1" xmlns="http://www.w3.org/2000/svg" xmlns:xlink="http://www.w3.org/1999/xlink" x="0px" y="0px"
	 width="300px" height="120px" viewBox="0 0 300 120" enable-background="new 0 0 300 120" xml:space="preserve">
<path opacity="0.7" fill="#2C2C2C" d="M190.099,99.139h-47.317c-1.308,0-2.368-1.059-2.368-2.367s1.06-2.369,2.368-2.369l0,0h47.317
	c1.308,0,2.368,1.061,2.368,2.369S191.406,99.139,190.099,99.139L190.099,99.139z M138.454,89.76
	c-2.36,2.619-20.183,9.334-27.733,12.1c-0.223,0.08-0.456,0.129-0.692,0.146c-0.657,0.037-1.301-0.191-1.785-0.637
	c-0.662-0.609-0.92-1.541-0.664-2.404c2.251-7.488,7.691-25.17,9.881-27.578l44.758-49.742c5.183-5.721,13.992-6.239,19.812-1.166
	c5.716,4.983,6.312,13.656,1.329,19.373c-0.049,0.057-0.098,0.112-0.147,0.167L138.454,89.76z M113.583,95.73
	c7.396-2.793,14.646-5.732,18.54-7.602l-11.941-11.775C118.688,79.906,116.069,87.711,113.583,95.73L113.583,95.73z M122.966,72.402
	l12.687,12.508l-2.996,2.959c0.784-0.354,1.531-0.783,2.23-1.283l32.963-36.629l-13.808-12.088L122.966,72.402z M161.176,29.943
	l-3.947,4.384l13.808,12.083l3.943-4.38L161.176,29.943z M178.841,24.025c-3.825-3.342-9.623-3.002-13.03,0.765l-1.449,1.619
	l13.808,12.083l1.449-1.618c3.338-3.698,3.045-9.401-0.652-12.738C178.924,24.098,178.883,24.061,178.841,24.025L178.841,24.025z"/>
</svg>
